<svg xmlns="http://www.w3.org/2000/svg" width="32" height="32" viewBox="0 0 32 32">
  <defs>
    <linearGradient id="g" x1="0" y1="0" x2="1" y2="1">
      <stop offset="0" stop-color="#6366f1"/>
      <stop offset="1" stop-color="#4338ca"/>
    </linearGradient>
  </defs>
  <rect width="32" height="32" rx="8" fill="url(#g)"/>
  <path d="M9 7h13a1 1 0 0 1 1 1v16l-2-1.3-2 1.3-2-1.3-2 1.3-2-1.3-2 1.3-2-1.3V8a1 1 0 0 1 1-1z" fill="#ffffff"/>
  <rect x="11.3" y="10.4" width="8.4" height="1.5" rx="0.75" fill="#c7d2fe"/>
  <rect x="11.3" y="13.3" width="8.4" height="1.5" rx="0.75" fill="#c7d2fe"/>
  <path d="M11.6 20.2 14.2 17.4 16.2 19.2 19.8 15" fill="none" stroke="#10b981" stroke-width="1.8" stroke-linecap="round" stroke-linejoin="round"/>
  <path d="M17.6 15h2.4v2.4" fill="none" stroke="#10b981" stroke-width="1.8" stroke-linecap="round" stroke-linejoin="round"/>
</svg>
